<?xml version="1.0" encoding="utf-8"?>
<!-- Generator: Adobe Illustrator 22.1.0, SVG Export Plug-In . SVG Version: 6.00 Build 0)  -->
<svg version="1.1" xmlns="http://www.w3.org/2000/svg" xmlns:xlink="http://www.w3.org/1999/xlink" x="0px" y="0px"
	 viewBox="0 0 76 76" style="enable-background:new 0 0 76 76;" xml:space="preserve">
<g id="Vrstva_2">
	<g>
		<rect x="16.3" y="16.3" width="5" height="5"/>
		<path d="M68,34.7h-8.3v-8.3h-5v-5h-5v-5h-8.3V8h-6.7v8.3h-8.3v5h-5v5h-5v5v3.3H8v5h8.3v5v5h5v5h5v5h8.3V68h6.7v-8.3h8.3v-5h5v-5h5
			v-5v-5H68V34.7z M26.3,26.3h3.3h5v8.3h-8.3v-3.3V26.3z"/>
		<rect x="54.7" y="16.3" width="5" height="5"/>
		<rect x="54.7" y="54.7" width="5" height="5"/>
		<rect x="16.3" y="54.7" width="5" height="5"/>
	</g>
</g>
</svg>
