<?xml version="1.0" encoding="utf-8"?>
<svg version="1.1" xmlns="http://www.w3.org/2000/svg" xmlns:xlink="http://www.w3.org/1999/xlink" x="0px"
	 y="0px" viewBox="0 0 76 76" style="enable-background:new 0 0 76 76;" xml:space="preserve">
<style type="text/css">
	.st0{display:none;}
	.st1{display:inline;fill:#B9B9B9;}
	.st2{display:inline;fill:#757575;}
	.st3{fill:#0000FF;}
</style>
<g id="rect1313_66_" class="st0">
	<polygon class="st1" points="75,75 1,75 1,1 75,1 	"/>
	<path class="st2" d="M76,0C76,0,76,0,76,0l0,76c0,0,0,0,0,0H0c0,0,0,0,0,0V0c0,0,0,0,0,0H76 M74,2H2v72h72V2L74,2z"/>
</g>
<g>
	<polygon class="st3" points="40.9,8.9 18,26.1 18,31.8 32.3,31.8 32.3,54.6 18,54.6 18,66.1 58,66.1 58,54.6 46.6,54.6 46.6,8.9 	
		"/>
</g>
</svg>
